<?xml version="1.0" encoding="UTF-8" standalone="no"?>
<!-- Created with Inkscape (http://www.inkscape.org/) -->

<svg
   xmlns:dc="http://purl.org/dc/elements/1.1/"
   xmlns:cc="http://creativecommons.org/ns#"
   xmlns:rdf="http://www.w3.org/1999/02/22-rdf-syntax-ns#"
   xmlns:svg="http://www.w3.org/2000/svg"
   xmlns="http://www.w3.org/2000/svg"
   xmlns:sodipodi="http://sodipodi.sourceforge.net/DTD/sodipodi-0.dtd"
   xmlns:inkscape="http://www.inkscape.org/namespaces/inkscape"
   width="250mm"
   height="250mm"
   viewBox="0 0 250 250"
   version="1.1"
   id="svg8"
   inkscape:version="0.92.4 (5da689c313, 2019-01-14)"
   sodipodi:docname="car.svg">
  <defs
     id="defs2" />
  <sodipodi:namedview
     id="base"
     pagecolor="#ffffff"
     bordercolor="#666666"
     borderopacity="1.0"
     inkscape:pageopacity="0.0"
     inkscape:pageshadow="2"
     inkscape:zoom="0.90913729"
     inkscape:cx="212.76192"
     inkscape:cy="480.78267"
     inkscape:document-units="mm"
     inkscape:current-layer="layer1"
     showgrid="false"
     inkscape:pagecheckerboard="true"
     showguides="true"
     inkscape:guide-bbox="true"
     inkscape:window-width="1920"
     inkscape:window-height="1057"
     inkscape:window-x="-8"
     inkscape:window-y="-8"
     inkscape:window-maximized="1" />
  <metadata
     id="metadata5">
    <rdf:RDF>
      <cc:Work
         rdf:about="">
        <dc:format>image/svg+xml</dc:format>
        <dc:type
           rdf:resource="http://purl.org/dc/dcmitype/StillImage" />
        <dc:title></dc:title>
      </cc:Work>
    </rdf:RDF>
  </metadata>
  <g
     inkscape:label="Layer 1"
     inkscape:groupmode="layer"
     id="layer1"
     transform="translate(0,-47)">
    <path
       style="fill:none;stroke:#000000;stroke-width:0.24919488px;stroke-linecap:butt;stroke-linejoin:miter;stroke-opacity:1"
       d="m 125.15827,49.704417 -34.647093,1.141988 c 0,0 -7.768171,0 -10.875442,6.566427 -3.10727,6.566427 -1.99753,13.989345 -1.99753,13.989345 l 0.665844,163.018703 c 0,0 0.221947,13.70385 6.880382,15.13133 6.658435,1.42748 39.973839,0.57099 39.973839,0.57099"
       id="path821"
       inkscape:connector-curvature="0" />
    <path
       style="fill:none;stroke:#000000;stroke-width:0.24919488px;stroke-linecap:butt;stroke-linejoin:miter;stroke-opacity:1"
       d="m 125.15827,99.951867 c 0,0 -3.5744,0.285493 -12.89621,0.856493 -9.3218,0.57099 -16.424133,0.57099 -23.748412,2.85497 -7.324278,2.28397 -7.768174,3.71146 -7.768174,3.71146"
       id="path829"
       inkscape:connector-curvature="0" />
    <path
       style="opacity:1;fill:#000003;fill-opacity:1;stroke-width:0.26458332"
       id="path835"
       d="m 283.90088,202.07367 c 1.13173,0.15047 0.48638,0.0754 1.93831,0.20485 0,0 -3.09367,2.21402 -3.09367,2.21402 v 0 c -1.54141,-0.0851 -0.85212,-0.0409 -2.0683,-0.12548 0,0 3.22366,-2.29339 3.22366,-2.29339 z"
       inkscape:connector-curvature="0" />
    <path
       style="fill:none;stroke:#000000;stroke-width:0.24919488px;stroke-linecap:butt;stroke-linejoin:miter;stroke-opacity:1"
       d="m 125.15827,49.704417 c 0,0 0,200.418783 0,200.418783"
       id="path1637"
       inkscape:connector-curvature="0" />
    <path
       style="fill:none;stroke:#000000;stroke-width:0.24919488px;stroke-linecap:butt;stroke-linejoin:miter;stroke-opacity:1"
       d="m 80.745474,107.37479 3.773114,20.55576 c 0,0 5.548695,-3.14046 12.651025,-5.42444 7.102327,-2.28396 26.855687,-3.14046 26.855687,-3.14046 h 1.10974"
       id="path1639"
       inkscape:connector-curvature="0" />
    <path
       style="fill:none;stroke:#000000;stroke-width:0.24919488px;stroke-linecap:butt;stroke-linejoin:miter;stroke-opacity:1"
       d="m 84.518588,127.93055 -0.22195,53.67341 3.551165,19.41378 c 0,0 5.104801,7.42292 9.32181,8.85041 4.217007,1.42749 26.633737,2.85496 26.633737,2.85496 l 0.88779,0.2855"
       id="path1641"
       inkscape:connector-curvature="0" />
    <path
       style="fill:none;stroke:#000000;stroke-width:0.24919488px;stroke-linecap:butt;stroke-linejoin:miter;stroke-opacity:1"
       d="m 80.967421,227.56895 c 1.997531,7.13742 0.443896,10.56338 6.658435,11.70537 6.214539,1.14199 37.287234,1.42749 37.287234,1.42749"
       id="path1643"
       inkscape:connector-curvature="0" />
    <path
       style="fill:none;stroke:#000000;stroke-width:0.24919488px;stroke-linecap:butt;stroke-linejoin:miter;stroke-opacity:1"
       d="m 87.847802,201.01774 -5.104796,33.97413"
       id="path1645"
       inkscape:connector-curvature="0" />
    <path
       style="fill:none;stroke:#000000;stroke-width:0.24919488px;stroke-linecap:butt;stroke-linejoin:miter;stroke-opacity:1"
       d="m 79.191839,168.75661 c -0.665843,-0.2855 4.882852,-0.571 4.882852,-0.571 l 0.499382,-2.92635 -6.214538,0.21413 0.05549,2.71222 z"
       id="path1647"
       inkscape:connector-curvature="0" />
    <path
       style="fill:none;stroke:#000000;stroke-width:0.24919488px;stroke-linecap:butt;stroke-linejoin:miter;stroke-opacity:1"
       d="m 80.745474,107.37479 3.064128,-39.903514 c 0,0 0.341782,-4.396429 4.61406,-7.034283 4.272277,-2.637857 35.032678,-4.176606 35.032678,-4.176606 h 1.70891"
       id="path1651"
       inkscape:connector-curvature="0" />
    <rect
       style="opacity:1;fill:#000000;fill-opacity:1;stroke-width:0.24919488"
       id="rect1653"
       width="2.8858314"
       height="22.44766"
       x="74.752365"
       y="71.402176" />
    <rect
       style="opacity:1;fill:#000000;fill-opacity:1;stroke-width:0.24919488"
       id="rect1655"
       width="3.4178221"
       height="27.697491"
       x="74.923256"
       y="204.8596" />
    <path
       style="opacity:1;fill:#000000;fill-opacity:1;stroke-width:0.19381826"
       d="m 84.533292,126.96468 c -1.745831,-9.4299 -3.503656,-19.16641 -3.503656,-19.4066 0,-0.69839 2.764687,-2.0724 6.765559,-3.36237 5.444944,-1.75557 8.738387,-2.23195 19.978895,-2.88986 9.5177,-0.55707 13.97963,-0.84328 15.76471,-1.01124 l 1.40985,-0.13264 v 9.44248 9.44249 l -2.52065,0.14843 c -10.41468,0.61329 -18.91967,1.54731 -23.274717,2.55603 -2.582834,0.59825 -7.73236,2.53641 -11.35982,4.27559 -1.643064,0.78776 -3.028163,1.43229 -3.077995,1.43229 -0.04983,0 -0.131813,-0.22257 -0.182176,-0.4946 z"
       id="path1657"
       inkscape:connector-curvature="0" />
    <path
       style="fill:none;stroke:#000000;stroke-width:0.24919488px;stroke-linecap:butt;stroke-linejoin:miter;stroke-opacity:1"
       d="m 80.745474,107.37479 0.842544,91.76948 c 0,0 2.70862,-17.54031 2.70862,-17.54031"
       id="path1661"
       inkscape:connector-curvature="0" />
    <path
       style="fill:none;stroke:#000000;stroke-width:0.24919488px;stroke-linecap:butt;stroke-linejoin:miter;stroke-opacity:1"
       d="m 78.170195,197.82534 3.417823,1.31893 c 0,0 -0.620597,28.42468 -0.620597,28.42468"
       id="path1663"
       inkscape:connector-curvature="0" />
    <path
       style="fill:#000000;fill-opacity:1;stroke:#000000;stroke-width:0.24919488px;stroke-linecap:butt;stroke-linejoin:miter;stroke-opacity:1"
       d="m 124.69114,213.00861 v 0 l 0.67448,-1.49885"
       id="path1665"
       inkscape:connector-curvature="0" />
    <path
       style="opacity:1;fill:#000000;fill-opacity:1;stroke-width:0.1370502"
       d="m 81.463861,165.19493 c -0.03374,-0.31348 -0.467567,-48.18555 -0.464652,-51.27353 l 0.0039,-4.11909 1.676403,9.09039 1.676402,9.09038 -0.07281,18.53857 -0.0728,18.53858 -1.098263,0.002 c -0.604044,0.001 -1.22061,0.0443 -1.370147,0.0958 -0.149537,0.0515 -0.274646,0.0681 -0.278019,0.0367 z"
       id="path1667"
       inkscape:connector-curvature="0" />
    <path
       style="opacity:1;fill:#000000;fill-opacity:1;stroke-width:0.1370502"
       d="m 81.718049,194.90416 c -0.004,-1.15412 -0.06413,-7.51005 -0.133548,-14.1243 -0.06942,-6.61424 -0.09209,-12.07008 -0.05038,-12.12409 0.04171,-0.054 0.642602,-0.13318 1.335313,-0.17592 l 1.259474,-0.0777 -4.4e-4,6.60608 -4.39e-4,6.60608 -1.201244,7.69414 -1.201242,7.69413 z"
       id="path1669"
       inkscape:connector-curvature="0" />
    <path
       style="opacity:1;fill:#000000;fill-opacity:1;stroke-width:0.1370502"
       d="m 114.82135,240.34202 c -11.74063,-0.21068 -22.960666,-0.70076 -26.208349,-1.14476 -3.329145,-0.45514 -4.921929,-1.42041 -5.658228,-3.42904 -0.137811,-0.37595 -0.200828,-0.72358 -0.140039,-0.77251 0.06079,-0.0489 1.232319,-7.5682 2.603396,-16.7095 1.371076,-9.14129 2.509231,-16.64634 2.52923,-16.67788 0.01999,-0.0315 0.650703,0.71731 1.401562,1.6641 2.462642,3.10526 4.868796,5.3521 6.799463,6.34926 0.669399,0.34573 1.512939,0.61663 2.555587,0.82069 3.520048,0.68894 11.471448,1.51498 21.796778,2.26438 1.82768,0.13265 3.50976,0.3061 3.73796,0.38543 0.27986,0.0973 0.46668,0.089 0.57398,-0.0256 0.13134,-0.14021 0.15907,2.23219 0.15907,13.6054 v 13.77522 l -4.07829,-0.0347 c -2.24306,-0.0191 -4.97551,-0.0508 -6.07212,-0.0705 z"
       id="path1671"
       inkscape:connector-curvature="0" />
    <path
       style="opacity:1;fill:#bb2f31;fill-opacity:1;stroke-width:0.27410039"
       d="m 81.133806,105.05683 c 0.07785,-0.81216 0.774835,-9.730373 1.54885,-19.818247 0.908187,-11.836548 1.535919,-18.735495 1.769955,-19.452255 0.497097,-1.522416 1.656909,-3.153679 3.073742,-4.323177 1.535739,-1.267649 4.22694,-1.980517 10.520746,-2.786826 5.973711,-0.765301 22.957731,-2.181549 26.282321,-2.191606 l 0.66461,-0.002 v 21.605764 c 0,20.368004 -0.0242,21.606024 -0.42293,21.610164 -0.23262,0.003 -2.21739,0.13708 -4.4106,0.29926 -2.19321,0.162183 -7.73969,0.513653 -12.3255,0.781053 -8.905205,0.51925 -13.179092,1.01679 -17.071073,1.98726 -3.023444,0.75391 -7.304472,2.33037 -8.552637,3.14946 -0.517799,0.3398 -1.003907,0.61782 -1.080244,0.61782 -0.07633,0 -0.07509,-0.6645 0.0028,-1.47666 z"
       id="path1673"
       inkscape:connector-curvature="0" />
    <path
       style="opacity:1;fill:#bb2f31;fill-opacity:1;stroke-width:0.27410039"
       d="m 118.10625,212.05668 c -7.65346,-0.613 -14.9,-1.36925 -18.0049,-1.87899 -4.149038,-0.68117 -6.465747,-2.27575 -10.319242,-7.1027 l -1.749256,-2.19115 -1.695057,-9.34028 -1.695058,-9.34027 -0.0046,-27.04901 -0.0046,-27.04901 3.323296,-1.58418 c 9.460016,-4.50951 13.740737,-5.36001 34.186887,-6.79233 l 2.82913,-0.19819 0.13048,22.17961 c 0.0718,12.19879 0.16165,32.81152 0.19975,45.80606 l 0.0693,23.62645 -0.13113,-22.53839 -0.13113,-22.53838 -0.0581,22.74612 c -0.0319,12.51036 -0.12406,22.9674 -0.20475,23.23785 -0.16798,0.56312 0.20012,0.56275 -6.74108,0.007 z"
       id="path1675"
       inkscape:connector-curvature="0" />
    <path
       style="opacity:1;fill:#bb2f31;fill-opacity:1;stroke-width:0.27410039"
       d="m 91.76351,249.8358 c -2.791363,-0.12181 -5.690342,-0.38626 -6.442174,-0.58766 -2.586352,-0.69284 -4.395727,-2.92393 -5.538907,-6.82985 -1.097476,-3.74976 -1.153873,-4.80506 -1.335131,-24.98284 -0.169457,-18.86427 -0.163436,-19.26347 0.287979,-19.09494 0.25358,0.0947 0.92326,0.34309 1.488179,0.55204 l 1.027125,0.3799 v 3.26299 c 0,1.79465 -0.118074,8.04488 -0.262388,13.88941 l -0.262389,10.62642 0.772086,4.01437 c 0.424648,2.20791 1.00493,4.57395 1.289516,5.25787 0.692337,1.66386 2.50556,2.81565 5.10928,3.24553 3.22093,0.53178 12.155974,0.94732 24.953094,1.16047 l 12.14425,0.20228 v 4.40743 4.40743 l -6.56453,0.20539 c -7.78778,0.24366 -19.598606,0.19217 -26.66599,-0.11624 z"
       id="path1677"
       inkscape:connector-curvature="0" />
    <path
       style="opacity:1;fill:#bb2f31;fill-opacity:1;stroke-width:0.27410039"
       d="m 81.881767,230.60925 -0.689589,-3.65262 0.277376,-13.50271 0.277373,-13.5027 1.259148,-8.33223 c 0.767358,-5.07788 1.326362,-8.11337 1.43124,-7.77186 0.09465,0.3082 0.849237,4.29649 1.676854,8.86285 l 1.504762,8.30248 -2.483841,16.56747 c -1.366111,9.1121 -2.501816,16.59322 -2.523787,16.62471 -0.02197,0.0315 -0.350262,-1.58644 -0.729536,-3.59539 z"
       id="path1679"
       inkscape:connector-curvature="0" />
    <path
       style="opacity:1;fill:#bb2f31;fill-opacity:1;stroke-width:0.27410039"
       d="m 79.498427,198.05491 -1.147962,-0.45406 1.14e-4,-14.36853 1.16e-4,-14.36853 1.300099,-0.0722 1.300102,-0.0722 0.145187,4.42448 c 0.173915,5.30001 0.245505,12.7354 0.193008,20.04592 -0.02922,4.06953 -0.111353,5.35736 -0.340605,5.34093 -0.166153,-0.0119 -0.81868,-0.22598 -1.450059,-0.47572 z"
       id="path1681"
       inkscape:connector-curvature="0" />
    <path
       style="opacity:1;fill:#bb2f31;fill-opacity:1;stroke-width:0.27410039"
       d="M 78.262613,162.14171 C 78.146837,159.446 77.710497,76.259613 77.766281,67.518746 c 0.04372,-6.850739 2.346205,-12.202269 6.214516,-14.444049 2.970638,-1.721557 3.818095,-1.824943 19.041513,-2.322991 7.76448,-0.254021 15.88449,-0.546983 18.04448,-0.651026 l 3.92724,-0.189168 v 2.945711 2.945712 l -2.23551,0.182237 c -1.22953,0.100231 -4.57373,0.331541 -7.43155,0.514023 -10.60608,0.677235 -21.139826,1.922813 -24.944641,2.949616 -2.952724,0.796849 -5.376681,3.152678 -6.360625,6.181854 -0.258178,0.794827 -0.884974,7.699263 -1.94512,21.426358 l -1.564193,20.253647 0.278577,28.69097 c 0.153218,15.78003 0.225305,28.75949 0.160194,28.84324 -0.06511,0.0838 -0.665499,0.23563 -1.334195,0.33751 l -1.215812,0.18522 z"
       id="path1683"
       inkscape:connector-curvature="0" />
    <path
       style="opacity:1;fill:#bb2f31;fill-opacity:1;stroke-width:0.09690913"
       d="m 78.808397,168.27063 -0.277699,-0.18208 v -1.17732 c 0,-0.97217 0.02355,-1.18894 0.135157,-1.24403 0.07434,-0.0367 0.645868,-0.0667 1.270069,-0.0667 h 1.134913 l 0.05434,0.50994 c 0.02989,0.28047 0.05434,0.86668 0.05434,1.3027 v 0.79277 l -0.808562,0.0731 c -0.444707,0.0402 -0.915726,0.0958 -1.046708,0.12341 -0.13098,0.0277 -0.363111,-0.0316 -0.515845,-0.13178 z"
       id="path1685"
       inkscape:connector-curvature="0" />
    <path
       style="opacity:1;fill:#bb2f31;fill-opacity:1;stroke-width:0.09690913"
       d="m 81.435847,166.87939 v -1.24903 l 0.396431,-0.0699 c 0.218036,-0.0385 0.847748,-0.0699 1.399356,-0.0699 h 1.002926 l -0.03428,0.52208 c -0.01885,0.28714 -0.07693,0.84881 -0.129059,1.24816 l -0.09478,0.72609 -0.899084,0.0708 c -0.494496,0.0389 -1.066129,0.0708 -1.270295,0.0708 h -0.371214 z"
       id="path1687"
       inkscape:connector-curvature="0" />
    <ellipse
       style="opacity:1;fill:#fffff0;fill-opacity:1;stroke-width:0.46842915"
       id="path1689"
       cx="90.68502"
       cy="54.67366"
       rx="3.6855669"
       ry="1.4766531" />
    <path
       style="fill:none;stroke:#000000;stroke-width:0.24919488px;stroke-linecap:butt;stroke-linejoin:miter;stroke-opacity:1"
       d="m 85.911926,54.440493 c -0.120837,4.041366 3.262633,3.419618 2.77928,3.575055 -0.483354,0.155437 8.096163,-0.466312 8.700354,-1.243497"
       id="path1691"
       inkscape:connector-curvature="0" />
    <path
       style="fill:none;stroke:#000000;stroke-width:0.24919488px;stroke-linecap:butt;stroke-linejoin:miter;stroke-opacity:1"
       d="m 102.70844,52.264373 c -0.48335,3.730492 0.72503,2.642431 0.24168,2.953306 -0.48335,0.310875 22.53633,-2.409276 22.29466,-2.292698 -0.24168,0.116577 0.07,-1.995262 -0.0796,-1.967785 -0.14953,0.02747 -22.4568,1.307177 -22.4568,1.307177 z"
       id="path1693"
       inkscape:connector-curvature="0" />
    <path
       style="opacity:1;fill:#030000;fill-opacity:1;stroke-width:0.02422728"
       d="m 103.08716,55.047061 c 0,-0.04139 -0.0141,-0.05528 -0.0562,-0.05528 -0.0362,0 -0.0805,-0.03307 -0.12433,-0.09289 -0.15349,-0.209356 -0.22197,-0.771291 -0.18283,-1.500473 0.0203,-0.378647 0.0747,-0.957084 0.0921,-0.979428 0.004,-0.0046 2.38028,-0.144944 5.28163,-0.311959 11.39974,-0.656218 16.4138,-0.949622 16.70888,-0.977744 l 0.17623,-0.0168 v 0.83648 0.836481 l -0.32576,0.03295 c -0.81792,0.08274 -3.04138,0.326905 -7.65272,0.840382 -1.70728,0.190107 -3.23997,0.35977 -4.09071,0.452827 -0.55806,0.06104 -1.3511,0.148012 -1.76231,0.193264 -3.54882,0.390527 -6.86239,0.720823 -7.58329,0.755899 -0.17624,0.0086 -0.35647,0.02143 -0.40053,0.02858 -0.0694,0.01124 -0.0801,0.0056 -0.0801,-0.0423 z"
       id="path1713"
       inkscape:connector-curvature="0" />
    <path
       style="fill:none;stroke:#000000;stroke-width:0.2498263px;stroke-linecap:butt;stroke-linejoin:miter;stroke-opacity:1"
       d="m 125.06178,49.704412 34.8229,1.141987 c 0,0 7.80759,0 10.93063,6.566423 3.12303,6.566428 2.00766,13.989348 2.00766,13.989348 l -0.66922,163.01871 c 0,0 -0.22307,13.70385 -6.9153,15.13133 -6.69221,1.42748 -40.17667,0.57099 -40.17667,0.57099"
       id="path821-3"
       inkscape:connector-curvature="0" />
    <path
       style="fill:none;stroke:#000000;stroke-width:0.2498263px;stroke-linecap:butt;stroke-linejoin:miter;stroke-opacity:1"
       d="m 125.06178,99.951857 c 0,0 3.59254,0.285503 12.96165,0.856503 9.3691,0.57098 16.50748,0.57098 23.86891,2.85496 7.36145,2.28398 7.8076,3.71147 7.8076,3.71147"
       id="path829-1"
       inkscape:connector-curvature="0" />
    <path
       style="fill:none;stroke:#000000;stroke-width:0.2498263px;stroke-linecap:butt;stroke-linejoin:miter;stroke-opacity:1"
       d="m 125.06178,49.704412 c 0,0 0,200.418788 0,200.418788"
       id="path1637-8"
       inkscape:connector-curvature="0" />
    <path
       style="fill:none;stroke:#000000;stroke-width:0.2498263px;stroke-linecap:butt;stroke-linejoin:miter;stroke-opacity:1"
       d="m 169.69994,107.37479 -3.79227,20.55576 c 0,0 -5.57684,-3.14046 -12.71521,-5.42445 -7.13838,-2.28395 -26.99195,-3.14046 -26.99195,-3.14046 h -1.11537"
       id="path1639-7"
       inkscape:connector-curvature="0" />
    <path
       style="fill:none;stroke:#000000;stroke-width:0.2498263px;stroke-linecap:butt;stroke-linejoin:miter;stroke-opacity:1"
       d="m 165.90767,127.93055 0.22308,53.67341 -3.56918,19.41378 c 0,0 -5.1307,7.42292 -9.36911,8.8504 -4.23841,1.4275 -26.76888,2.85497 -26.76888,2.85497 l -0.89229,0.28549"
       id="path1641-8"
       inkscape:connector-curvature="0" />
    <path
       style="fill:none;stroke:#000000;stroke-width:0.2498263px;stroke-linecap:butt;stroke-linejoin:miter;stroke-opacity:1"
       d="m 169.47687,227.56895 c -2.00768,7.13742 -0.44615,10.56337 -6.69223,11.70537 -6.24607,1.14199 -37.47643,1.42749 -37.47643,1.42749"
       id="path1643-4"
       inkscape:connector-curvature="0" />
    <path
       style="fill:none;stroke:#000000;stroke-width:0.2498263px;stroke-linecap:butt;stroke-linejoin:miter;stroke-opacity:1"
       d="m 162.56157,201.01774 5.1307,33.97412"
       id="path1645-3"
       inkscape:connector-curvature="0" />
    <path
       style="fill:none;stroke:#000000;stroke-width:0.2498263px;stroke-linecap:butt;stroke-linejoin:miter;stroke-opacity:1"
       d="m 171.26145,168.7566 c 0.66923,-0.28549 -4.90763,-0.571 -4.90763,-0.571 l -0.50191,-2.92635 6.24607,0.21414 -0.0557,2.71221 z"
       id="path1647-8"
       inkscape:connector-curvature="0" />
    <path
       style="fill:none;stroke:#000000;stroke-width:0.2498263px;stroke-linecap:butt;stroke-linejoin:miter;stroke-opacity:1"
       d="m 169.69994,107.37479 -3.07968,-39.903514 c 0,0 -0.34352,-4.396437 -4.63747,-7.034289 -4.29395,-2.637851 -35.21044,-4.176606 -35.21044,-4.176606 h -1.71758"
       id="path1651-5"
       inkscape:connector-curvature="0" />
    <rect
       style="opacity:1;fill:#000000;fill-opacity:1;stroke-width:0.2498263"
       id="rect1653-3"
       width="2.9004741"
       height="22.44766"
       x="-175.72346"
       y="71.402176"
       transform="scale(-1,1)" />
    <rect
       style="opacity:1;fill:#000000;fill-opacity:1;stroke-width:0.2498263"
       id="rect1655-4"
       width="3.4351645"
       height="27.697491"
       x="-175.5517"
       y="204.85962"
       transform="scale(-1,1)" />
    <path
       style="opacity:1;fill:#000000;fill-opacity:1;stroke-width:0.19430937"
       d="m 165.8929,126.96468 c 1.75469,-9.42991 3.52144,-19.16642 3.52144,-19.40661 0,-0.69839 -2.77872,-2.07239 -6.7999,-3.36237 -5.47257,-1.75556 -8.78272,-2.23195 -20.08026,-2.88986 -9.56601,-0.55707 -14.05058,-0.84328 -15.84471,-1.01123 l -1.417,-0.13265 v 9.44249 9.44249 l 2.53344,0.14842 c 10.46752,0.61329 19.01566,1.54731 23.39281,2.55604 2.59594,0.59824 7.7716,2.5364 11.41747,4.27558 1.6514,0.78777 3.04352,1.43229 3.09361,1.43229 0.0501,0 0.13248,-0.22257 0.1831,-0.49459 z"
       id="path1657-0"
       inkscape:connector-curvature="0" />
    <path
       style="fill:none;stroke:#000000;stroke-width:0.2498263px;stroke-linecap:butt;stroke-linejoin:miter;stroke-opacity:1"
       d="m 169.69994,107.37479 -0.84682,91.76947 c 0,0 -2.72237,-17.5403 -2.72237,-17.5403"
       id="path1661-0"
       inkscape:connector-curvature="0" />
    <path
       style="fill:none;stroke:#000000;stroke-width:0.2498263px;stroke-linecap:butt;stroke-linejoin:miter;stroke-opacity:1"
       d="m 172.28829,197.82534 -3.43517,1.31892 c 0,0 0.62375,28.42469 0.62375,28.42469"
       id="path1663-9"
       inkscape:connector-curvature="0" />
    <path
       style="fill:#000000;fill-opacity:1;stroke:#000000;stroke-width:0.2498263px;stroke-linecap:butt;stroke-linejoin:miter;stroke-opacity:1"
       d="m 125.53129,213.0086 v 0 l -0.6779,-1.49884"
       id="path1665-8"
       inkscape:connector-curvature="0" />
    <path
       style="opacity:1;fill:#000000;fill-opacity:1;stroke-width:0.13739745"
       d="m 168.9779,165.19493 c 0.0339,-0.31349 0.46994,-48.18556 0.46702,-51.27353 l -0.004,-4.11909 -1.68491,9.09038 -1.68491,9.09039 0.0732,18.53857 0.0732,18.53858 1.10384,0.002 c 0.6071,0.001 1.2268,0.0443 1.3771,0.0958 0.15029,0.0515 0.27604,0.068 0.27942,0.0367 z"
       id="path1667-3"
       inkscape:connector-curvature="0" />
    <path
       style="opacity:1;fill:#000000;fill-opacity:1;stroke-width:0.13739745"
       d="m 168.72242,194.90416 c 0.004,-1.15413 0.0644,-7.51006 0.13423,-14.1243 0.0698,-6.61424 0.0926,-12.07008 0.0507,-12.1241 -0.0419,-0.0541 -0.64586,-0.13317 -1.34209,-0.17592 l -1.26587,-0.0777 4.4e-4,6.60607 4.5e-4,6.60608 1.20734,7.69415 1.20734,7.69413 z"
       id="path1669-2"
       inkscape:connector-curvature="0" />
    <path
       style="opacity:1;fill:#000000;fill-opacity:1;stroke-width:0.13739745"
       d="m 135.45115,240.34201 c 11.80021,-0.21067 23.07718,-0.70075 26.34134,-1.14476 3.34604,-0.45513 4.94691,-1.4204 5.68694,-3.42903 0.13851,-0.37596 0.20184,-0.72359 0.14074,-0.77251 -0.0611,-0.0489 -1.23857,-7.56821 -2.61661,-16.70951 -1.37802,-9.14128 -2.52195,-16.64633 -2.54205,-16.67787 -0.0201,-0.0315 -0.65401,0.71731 -1.40868,1.66409 -2.47513,3.10527 -4.8935,5.3521 -6.83396,6.34927 -0.6728,0.34573 -1.52061,0.61662 -2.56856,0.82068 -3.5379,0.68895 -11.52966,1.51498 -21.90737,2.26439 -1.83695,0.13265 -3.52757,0.30609 -3.75693,0.38543 -0.28128,0.0973 -0.46906,0.089 -0.57689,-0.0255 -0.13201,-0.14021 -0.15989,2.23219 -0.15989,13.6054 v 13.77522 l 4.09899,-0.0347 c 2.25444,-0.0191 5.00076,-0.0508 6.10293,-0.0705 z"
       id="path1671-3"
       inkscape:connector-curvature="0" />
    <path
       style="opacity:1;fill:#bb2f31;fill-opacity:1;stroke-width:0.27479491"
       d="m 169.30964,105.05683 c -0.0782,-0.81216 -0.77877,-9.730383 -1.55671,-19.818256 -0.9128,-11.836544 -1.54372,-18.735492 -1.77895,-19.452253 -0.49961,-1.522417 -1.66531,-3.153673 -3.08933,-4.323169 -1.54353,-1.267652 -4.24838,-1.980525 -10.57413,-2.786833 -6.00402,-0.7653 -23.07423,-2.181547 -26.41568,-2.191604 l -0.66798,-0.002 v 21.605787 c 0,20.367995 0.0243,21.606025 0.42508,21.610155 0.23379,0.002 2.22863,0.13709 4.43297,0.29927 2.20434,0.162173 7.77896,0.513653 12.38804,0.781043 8.9504,0.51926 13.24597,1.01679 17.1577,1.98727 3.03878,0.7539 7.34153,2.33037 8.59603,3.14946 0.52042,0.33979 1.009,0.6178 1.08573,0.6178 0.0767,0 0.0755,-0.66449 -0.002,-1.47664 z"
       id="path1673-0"
       inkscape:connector-curvature="0" />
    <path
       style="opacity:1;fill:#bb2f31;fill-opacity:1;stroke-width:0.27479491"
       d="m 132.14958,212.05668 c 7.6923,-0.613 14.97561,-1.36925 18.09627,-1.879 4.17009,-0.68117 6.49854,-2.27575 10.3716,-7.10269 l 1.75814,-2.19116 1.70365,-9.34027 1.70365,-9.34028 0.004,-27.049 0.005,-27.04901 -3.34016,-1.58418 c -9.50802,-4.50951 -13.81047,-5.36002 -34.36037,-6.79233 l -2.84347,-0.1982 -0.13114,22.17961 c -0.0721,12.19879 -0.16248,32.81153 -0.20077,45.80607 l -0.0696,23.62645 0.13179,-22.53839 0.1318,-22.53839 0.0584,22.74612 c 0.032,12.51036 0.12469,22.96741 0.20578,23.23785 0.16884,0.56312 -0.20113,0.56275 6.77529,0.006 z"
       id="path1675-3"
       inkscape:connector-curvature="0" />
    <path
       style="opacity:1;fill:#bb2f31;fill-opacity:1;stroke-width:0.27479491"
       d="m 158.62599,249.8358 c 2.80553,-0.12181 5.71922,-0.38626 6.47487,-0.58767 2.59947,-0.69283 4.41803,-2.92392 5.56701,-6.82984 1.10304,-3.74976 1.15973,-4.80507 1.34191,-24.98284 0.17031,-18.86427 0.16426,-19.26347 -0.28945,-19.09494 -0.25486,0.0946 -0.92794,0.34308 -1.49572,0.55203 l -1.03235,0.37991 v 3.26299 c 0,1.79465 0.11868,8.04488 0.26372,13.88941 l 0.26373,10.62641 -0.77601,4.01438 c -0.42681,2.20791 -1.01002,4.57395 -1.29606,5.25787 -0.69584,1.66385 -2.51827,2.81564 -5.1352,3.24553 -3.23728,0.53178 -12.21766,0.94731 -25.07972,1.16046 l -12.20586,0.20228 v 4.40743 4.40744 l 6.59784,0.20538 c 7.82729,0.24366 19.69804,0.19218 26.80129,-0.11623 z"
       id="path1677-2"
       inkscape:connector-curvature="0" />
    <path
       style="opacity:1;fill:#bb2f31;fill-opacity:1;stroke-width:0.27479491"
       d="m 168.55787,230.60925 0.6931,-3.65263 -0.27879,-13.5027 -0.27877,-13.50271 -1.26555,-8.33223 c -0.77125,-5.07787 -1.33309,-8.11336 -1.4385,-7.77185 -0.0951,0.3082 -0.85354,4.29649 -1.68536,8.86285 l -1.51239,8.30248 2.49643,16.56746 c 1.37305,9.11211 2.51452,16.59322 2.53659,16.62471 0.0221,0.0315 0.35205,-1.58643 0.73324,-3.59538 z"
       id="path1679-3"
       inkscape:connector-curvature="0" />
    <path
       style="opacity:1;fill:#bb2f31;fill-opacity:1;stroke-width:0.27479491"
       d="m 170.95332,198.0549 1.15377,-0.45405 -1e-4,-14.36854 -1.2e-4,-14.36853 -1.3067,-0.0722 -1.30669,-0.0722 -0.14594,4.42449 c -0.17479,5.3 -0.24675,12.7354 -0.19398,20.04592 0.0294,4.06953 0.11191,5.35736 0.34233,5.34093 0.167,-0.0119 0.82284,-0.22598 1.45743,-0.47572 z"
       id="path1681-4"
       inkscape:connector-curvature="0" />
    <path
       style="opacity:1;fill:#bb2f31;fill-opacity:1;stroke-width:0.27479491"
       d="m 172.1954,162.14171 c 0.11635,-2.69572 0.55491,-85.8821 0.49885,-94.622964 -0.0439,-6.850739 -2.35812,-12.202273 -6.24605,-14.444053 -2.98571,-1.721557 -3.83747,-1.824943 -19.13814,-2.322991 -7.80387,-0.254021 -15.96509,-0.546983 -18.13604,-0.651026 l -3.94716,-0.189168 v 2.945711 2.945712 l 2.24685,0.182237 c 1.23577,0.100229 4.59693,0.331541 7.46926,0.514022 10.65989,0.67724 21.24709,1.922812 25.07121,2.949618 2.96771,0.796844 5.40396,3.15268 6.39291,6.181855 0.25948,0.794825 0.88945,7.699263 1.95498,21.42636 l 1.57213,20.253637 -0.27999,28.69097 c -0.15399,15.78003 -0.22645,28.75949 -0.161,28.84325 0.0654,0.0837 0.66887,0.23563 1.34096,0.33751 l 1.22198,0.18522 z"
       id="path1683-9"
       inkscape:connector-curvature="0" />
    <path
       style="opacity:1;fill:#bb2f31;fill-opacity:1;stroke-width:0.09715467"
       d="m 171.64684,168.27062 0.27911,-0.18207 v -1.17733 c 0,-0.97217 -0.0237,-1.18894 -0.13585,-1.24403 -0.0747,-0.0368 -0.64913,-0.0668 -1.2765,-0.0668 h -1.14068 l -0.0546,0.50994 c -0.0301,0.28047 -0.0546,0.86668 -0.0546,1.3027 v 0.79277 l 0.81267,0.0731 c 0.44696,0.0403 0.92037,0.0957 1.05202,0.12341 0.13164,0.0277 0.36495,-0.0316 0.51846,-0.13178 z"
       id="path1685-6"
       inkscape:connector-curvature="0" />
    <path
       style="opacity:1;fill:#bb2f31;fill-opacity:1;stroke-width:0.09715467"
       d="m 169.00606,166.87939 v -1.24903 l -0.39844,-0.0699 c -0.21914,-0.0385 -0.85205,-0.0699 -1.40646,-0.0699 h -1.00801 l 0.0345,0.52208 c 0.0189,0.28714 0.0773,0.84881 0.12971,1.24817 l 0.0953,0.72608 0.90365,0.0707 c 0.497,0.0389 1.07154,0.0707 1.27674,0.0707 h 0.3731 z"
       id="path1687-1"
       inkscape:connector-curvature="0" />
    <ellipse
       style="opacity:1;fill:#fffff0;fill-opacity:1;stroke-width:0.46961606"
       id="path1689-1"
       cx="-159.70995"
       cy="54.673645"
       rx="3.7042682"
       ry="1.4766531"
       transform="scale(-1,1)" />
    <path
       style="fill:none;stroke:#000000;stroke-width:0.2498263px;stroke-linecap:butt;stroke-linejoin:miter;stroke-opacity:1"
       d="m 164.50727,54.440488 c 0.12146,4.041365 -3.27919,3.419621 -2.79338,3.575054 0.4858,0.155434 -8.13724,-0.466311 -8.74451,-1.243497"
       id="path1691-3"
       inkscape:connector-curvature="0" />
    <path
       style="fill:none;stroke:#000000;stroke-width:0.2498263px;stroke-linecap:butt;stroke-linejoin:miter;stroke-opacity:1"
       d="m 147.62553,52.264367 c 0.4858,3.730492 -0.72871,2.642432 -0.24291,2.953307 0.48581,0.310874 -22.65068,-2.409277 -22.40778,-2.292699 0.2429,0.116578 -0.0703,-1.995262 0.08,-1.967784 0.1503,0.02747 22.57076,1.307176 22.57076,1.307176 z"
       id="path1693-1"
       inkscape:connector-curvature="0" />
    <path
       style="opacity:1;fill:#030000;fill-opacity:1;stroke-width:0.02428867"
       d="m 147.24488,55.047057 c 0,-0.04138 0.0142,-0.05528 0.0565,-0.05528 0.0364,0 0.0809,-0.03307 0.12496,-0.09289 0.15427,-0.209356 0.22309,-0.771292 0.18375,-1.500474 -0.0204,-0.378647 -0.0751,-0.957084 -0.0925,-0.979427 -0.003,-0.0046 -2.39236,-0.144944 -5.30843,-0.311959 -11.45764,-0.656218 -16.49713,-0.949623 -16.79372,-0.977744 l -0.17711,-0.01679 v 0.83648 0.83648 l 0.32741,0.03295 c 0.82206,0.08273 3.0568,0.326905 7.69155,0.840382 1.71593,0.190106 3.2564,0.35977 4.11145,0.452827 0.5609,0.06105 1.35797,0.148012 1.77127,0.193264 3.56681,0.390527 6.89721,0.720822 7.62176,0.755899 0.17713,0.0085 0.35828,0.02144 0.40256,0.02857 0.0697,0.01125 0.0806,0.0056 0.0806,-0.04229 z"
       id="path1713-4"
       inkscape:connector-curvature="0" />
  </g>
</svg>
